# xmcd
#
# Track frame offsets: 
#        150
#        15061
#        31969
#        46194
#        62629
#        75865
#        91209
#        110949
#        127282
#        148365
#        163215
#        177444
#
# Disc length: 2579 seconds
#
# Revision: 1
# Processed by: cddbd v1.5.2PL0 Copyright (c) Steve Scherf et al.
# Submitted via: ExactAudioCopy v0.99pb5
#
DISCID=9e0a110c
DTITLE=Natasha St Pier - Bonne Nouvelle
DYEAR=2012
DGENRE=Chanson
TTITLE0=Bonne nouvelle
TTITLE1=Ma meilleure idée
TTITLE2=Par coeur
TTITLE3=Même pas peur
TTITLE4=La princesse
TTITLE5=J'aime ça
TTITLE6=Elle veut bien croire
TTITLE7=Une petite fille
TTITLE8=Vous les hommes
TTITLE9=Pour ne jamais t'oublier
TTITLE10=Juste comme ça (en duo avec Mickaël Miro)
TTITLE11=Dans le mercure
EXTD=
EXTT0=
EXTT1=
EXTT2=
EXTT3=
EXTT4=
EXTT5=
EXTT6=
EXTT7=
EXTT8=
EXTT9=
EXTT10=
EXTT11=
PLAYORDER=
